<svg width="70" height="18" viewBox="0 0 70 18" fill="none" xmlns="http://www.w3.org/2000/svg">
<path d="M0.848 17V1.352H10.712V4.328H4.376V7.952H9.8V10.928H4.376V17H0.848ZM11.4772 17V5.096H14.3572L14.5972 7.184H14.6932C15.1252 6.384 15.6452 5.792 16.2532 5.408C16.8612 5.008 17.4692 4.808 18.0772 4.808C18.4132 4.808 18.6852 4.832 18.8932 4.88C19.1172 4.928 19.3172 4.984 19.4932 5.048L18.9172 8.096C18.7092 8.032 18.5012 7.984 18.2932 7.952C18.1012 7.92 17.8772 7.904 17.6212 7.904C17.1732 7.904 16.7012 8.072 16.2052 8.408C15.7252 8.728 15.3252 9.288 15.0052 10.088V17H11.4772ZM24.9333 17.288C23.2213 17.288 21.7893 16.744 20.6373 15.656C19.4853 14.552 18.9093 13.016 18.9093 11.048C18.9093 9.768 19.1733 8.664 19.7013 7.736C20.2453 6.792 20.9413 6.072 21.7893 5.576C22.6533 5.064 23.5653 4.808 24.5253 4.808C26.2213 4.808 27.4853 5.36 28.3173 6.464C29.1653 7.552 29.5893 8.904 29.5893 10.52C29.5893 11.176 29.5413 11.696 29.4453 12.08H22.3173C22.4773 12.944 22.8373 13.584 23.3973 14C23.9573 14.4 24.6293 14.6 25.4133 14.6C26.2613 14.6 27.1173 14.336 27.9813 13.808L29.1573 15.944C27.8453 16.84 26.4373 17.288 24.9333 17.288ZM22.2933 9.752H26.5893C26.5893 9.096 26.4293 8.56 26.1093 8.144C25.8053 7.712 25.3013 7.496 24.5973 7.496C24.0373 7.496 23.5413 7.688 23.1093 8.072C22.6773 8.44 22.4053 9 22.2933 9.752ZM34.3312 17.288C33.5472 17.288 32.7392 17.136 31.9072 16.832C31.0752 16.528 30.3632 16.128 29.7712 15.632L31.3552 13.424C32.4592 14.256 33.4832 14.672 34.4272 14.672C35.4352 14.672 35.9392 14.336 35.9392 13.664C35.9392 13.264 35.6832 12.952 35.1712 12.728C34.6752 12.504 34.1232 12.272 33.5152 12.032C32.7952 11.76 32.0912 11.352 31.4032 10.808C30.7152 10.264 30.3712 9.504 30.3712 8.528C30.3712 7.424 30.7872 6.528 31.6192 5.84C32.4512 5.152 33.5552 4.808 34.9312 4.808C35.8432 4.808 36.6432 4.968 37.3312 5.288C38.0192 5.592 38.6192 5.936 39.1312 6.32L37.5472 8.432C37.1152 8.128 36.6912 7.888 36.2752 7.712C35.8592 7.52 35.4432 7.424 35.0272 7.424C34.1312 7.424 33.6832 7.736 33.6832 8.36C33.6832 8.744 33.9152 9.04 34.3792 9.248C34.8592 9.44 35.4032 9.648 36.0112 9.872C36.7632 10.144 37.4832 10.536 38.1712 11.048C38.8752 11.56 39.2272 12.36 39.2272 13.448C39.2272 14.536 38.8112 15.448 37.9792 16.184C37.1472 16.92 35.9312 17.288 34.3312 17.288ZM40.2678 17V0.175999H43.7958V4.304L43.6278 6.44C44.0758 6.04 44.5958 5.672 45.1878 5.336C45.7958 4.984 46.4998 4.808 47.2998 4.808C48.5958 4.808 49.5318 5.24 50.1078 6.104C50.6998 6.952 50.9958 8.12 50.9958 9.608V17H47.4678V10.064C47.4678 9.2 47.3478 8.608 47.1078 8.288C46.8838 7.968 46.5158 7.808 46.0038 7.808C45.5558 7.808 45.1718 7.912 44.8518 8.12C44.5318 8.312 44.1798 8.592 43.7958 8.96V17H40.2678Z" fill="url(#paint0_linear_1_4)"/>
<path d="M57.3628 17.288C55.8908 17.288 54.8348 16.864 54.1948 16.016C53.5708 15.168 53.2588 14.056 53.2588 12.68V7.856H51.6268V5.24L53.4508 5.096L53.8588 1.928H56.7868V5.096H59.6428V7.856H56.7868V12.632C56.7868 13.896 57.2988 14.528 58.3228 14.528C58.5148 14.528 58.7068 14.504 58.8988 14.456C59.1068 14.408 59.2908 14.352 59.4508 14.288L60.0028 16.856C59.6828 16.952 59.3068 17.048 58.8748 17.144C58.4428 17.24 57.9388 17.288 57.3628 17.288ZM64.4975 14.552C64.8975 14.552 65.2415 14.464 65.5295 14.288C65.8335 14.112 66.1375 13.864 66.4415 13.544V11.456C65.1935 11.632 64.3295 11.888 63.8495 12.224C63.3695 12.56 63.1295 12.96 63.1295 13.424C63.1295 14.176 63.5855 14.552 64.4975 14.552ZM63.2975 17.288C62.2095 17.288 61.3455 16.944 60.7055 16.256C60.0655 15.552 59.7455 14.696 59.7455 13.688C59.7455 12.44 60.2735 11.464 61.3295 10.76C62.3855 10.056 64.0895 9.584 66.4415 9.344C66.4095 8.816 66.2495 8.4 65.9615 8.096C65.6895 7.776 65.2255 7.616 64.5695 7.616C64.0735 7.616 63.5695 7.712 63.0575 7.904C62.5455 8.096 62.0015 8.36 61.4255 8.696L60.1535 6.368C60.9055 5.904 61.7055 5.528 62.5535 5.24C63.4015 4.952 64.2975 4.808 65.2415 4.808C66.7615 4.808 67.9295 5.248 68.7455 6.128C69.5615 7.008 69.9695 8.36 69.9695 10.184V17H67.0895L66.8495 15.776H66.7535C66.2415 16.224 65.7055 16.592 65.1455 16.88C64.5855 17.152 63.9695 17.288 63.2975 17.288Z" fill="url(#paint1_linear_1_4)"/>
<defs>
<linearGradient id="paint0_linear_1_4" x1="35.5" y1="10" x2="-14.8608" y2="26.94" gradientUnits="userSpaceOnUse">
<stop stop-color="#08A72B"/>
<stop offset="1" stop-color="#5AF874"/>
</linearGradient>
<linearGradient id="paint1_linear_1_4" x1="74.4515" y1="1.50002" x2="13.2957" y2="12.4992" gradientUnits="userSpaceOnUse">
<stop stop-color="#29372C"/>
<stop offset="1" stop-color="#166B29" stop-opacity="0.9"/>
</linearGradient>
</defs>
</svg>
