<?xml version="1.0" encoding="utf-8"?>
<!-- Generator: Adobe Illustrator 23.0.3, SVG Export Plug-In . SVG Version: 6.00 Build 0)  -->
<svg version="1.1"
	 id="Layer_1" inkscape:version="0.91 r13725" sodipodi:docname="MasterCard_1997.svg" xmlns:cc="http://creativecommons.org/ns#" xmlns:dc="http://purl.org/dc/elements/1.1/" xmlns:inkscape="http://www.inkscape.org/namespaces/inkscape" xmlns:rdf="http://www.w3.org/1999/02/22-rdf-syntax-ns#" xmlns:sodipodi="http://sodipodi.sourceforge.net/DTD/sodipodi-0.dtd" xmlns:svg="http://www.w3.org/2000/svg"
	 xmlns="http://www.w3.org/2000/svg" xmlns:xlink="http://www.w3.org/1999/xlink" x="0px" y="0px" viewBox="0 0 1000 598.7"
	 style="enable-background:new 0 0 1000 598.7;" xml:space="preserve">
<style type="text/css">
	.st0{fill:#FF9900;}
	.st1{fill:#CC0000;}
	.st2{fill:#FCB340;}
	.st3{fill:#000066;}
	.st4{fill:#FFFFFF;}
</style>
<g>
	<path class="st0" d="M700.6,0C535.4,0,401.4,134.1,401.5,299.4c0,0.1,0,0.1,0,0.2c0,165.3,134.1,299.2,299.4,299.2
		c165.3,0,299.2-134.1,299.2-299.4c0-0.1,0-0.1,0-0.2C1000,133.9,865.9,0,700.6,0z"/>
	<path class="st1" d="M598.6,299.4c0-22-2.4-43.4-6.9-64.1H408.7c2.3-10.6,5.1-21.1,8.5-31.4H583c-3.7-11-8-21.7-12.9-32H430
		c5.1-10.8,10.8-21.3,17.2-31.4h105.7c-7-11.2-14.8-21.9-23.2-32h-58.9c9.1-10.7,19.1-20.8,30-30.2c-53.2-48.4-123.9-78-201.4-78
		c-0.6,0-1.3,0-1.9,0l0,0C133,1.1,0,134.8,0,299.4c0,165.2,134.1,299.3,299.3,299.3c77.5,0,148.2-29.5,201.4-78c0,0,0,0,0,0h0.1
		c10.9-9.9,21-20.6,30.4-32h-61.3c-8.2-9.9-15.6-20.2-22.3-30.8h105.7c6.4-10.3,12.3-21,17.4-32H430c-4.8-10.3-9-20.8-12.5-31.4
		h165.7C593.1,364.4,598.6,332.5,598.6,299.4z"/>
	<g>
		<path class="st2" d="M971.7,466.7c-0.2-0.2-0.5-0.4-0.9-0.6c0.9-0.1,1.6-0.4,2.2-0.9c0.5-0.6,0.8-1.2,0.8-2c0-0.5-0.2-1-0.5-1.5
			c-0.3-0.5-0.8-0.8-1.3-1c-0.5-0.2-1.4-0.3-2.6-0.3h-3.6v10.4l0,0h1.7v-4.4h1c0.6,0,1,0.1,1.3,0.4c0.4,0.3,1,1.1,1.8,2.4l0.9,1.6h2
			l-1.3-2C972.6,467.8,972.1,467.1,971.7,466.7z M969.5,465h-2v-3.1h1.9c0.8,0,1.4,0.1,1.7,0.2c0.3,0.1,0.5,0.3,0.7,0.5
			c0.2,0.2,0.3,0.5,0.3,0.8c0,0.5-0.2,0.9-0.5,1.2C971.1,464.8,970.4,465,969.5,465z"/>
		<path class="st2" d="M978.4,460.6c-0.9-1.6-2.1-2.8-3.6-3.6c-1.5-0.8-3.1-1.3-4.8-1.3c-1.6,0-3.2,0.4-4.8,1.3
			c-1.5,0.8-2.7,2-3.6,3.6c-0.9,1.5-1.3,3.2-1.3,4.8c0,1.7,0.4,3.3,1.3,4.8c0.9,1.5,2.1,2.7,3.6,3.6c1.5,0.8,3.1,1.3,4.8,1.3
			c1.7,0,3.3-0.4,4.8-1.3c1.5-0.9,2.7-2.1,3.6-3.6c0.9-1.5,1.3-3.1,1.3-4.8C979.6,463.8,979.2,462.2,978.4,460.6z M977,469.5
			c-0.7,1.3-1.7,2.3-3,3c-1.3,0.7-2.6,1.1-4,1.1c-1.4,0-2.7-0.4-4-1.1c-1.3-0.7-2.3-1.7-3-3c-0.7-1.3-1.1-2.6-1.1-4
			c0-1.4,0.4-2.7,1.1-4c0.7-1.3,1.7-2.3,3-3c1.3-0.7,2.6-1.1,4-1.1c1.4,0,2.7,0.3,4,1.1c1.3,0.7,2.3,1.7,3,3c0.7,1.3,1.1,2.6,1.1,4
			C978,466.9,977.7,468.2,977,469.5z"/>
	</g>
</g>
<g>
	<g>
		<path class="st3" d="M393.7,294.3h16.9l3.5-30.7h-15.9l3.2-18.6h-33.2c-0.7,0.7-18.8,104.8-18.8,117.5c0,18.8,10.5,27.1,25.4,27
			c11.6-0.1,20.7-3.3,23.9-4.2l4-27.1c-2.2,0-5.4,0.9-8.2,0.9c-11.1,0-12.5-5.9-11.6-10.3L393.7,294.3z"/>
		<path class="st3" d="M506.7,335.9c0,0,4.2-20.6,4.2-29.1c0-21-11.4-46.8-46.4-46.8c-32,0-55.8,34.5-55.8,73.5h0
			c0,45,29.7,55.7,55,55.7c23.4,0,35.6-5.4,35.6-5.4l5.6-30.7c0,0-19.8,8-35.8,8c-34.2,0-28.2-25.5-28.2-25.5L506.7,335.9z
			 M464.6,288.6c18,0,14.7,20.2,14.7,21.8h-35.4C443.9,308.3,447.2,288.6,464.6,288.6z"/>
		<path class="st3" d="M655.1,264.2c16.2,0,29.3,9.1,29.3,9.1l5.2-33.8c0,0-15.4-11.1-31.9-11.2c-49.8-0.2-78.3,34.5-78.3,94.4
			c0,39.7,21.1,66.8,59.1,66.8c10.8,0,27.9-4.4,27.9-4.4h0l5.7-34.7c0,0-15.6,7.8-26.4,7.8c-22.6,0-31.7-17.3-31.7-35.8
			C614,284.9,633.4,264.2,655.1,264.2z"/>
		<path class="st3" d="M223.3,260.5c-21.8,0-38.6,7-38.6,7l-4.6,27.5c0,0,13.8-5.6,34.7-5.6c11.9,0,20.5,1.3,20.5,11
			c0,5.9-1.1,8-1.1,8s-9.4-0.8-13.7-0.8c-31.1,0-56.5,11.8-56.5,47.2c0,27.9,19,34.4,30.8,34.4c22.5,0,31.4-14.2,31.9-14.2
			l-0.3,11.8c0,0,28.1,0,28.1,0l12.5-87.8C267.1,261.7,234.6,260.5,223.3,260.5z M207.6,362.5c-9.9,0-12.5-7.6-12.5-12
			c0-8.7,4.7-19.2,28.1-19.2c5.4,0,4,0.4,5,0.5C228.8,337.1,226.8,362.5,207.6,362.5z"/>
		<path class="st3" d="M324.6,289.9c4.5,0,21.8,1.4,21.8,1.4l4-28.1c0,0-11.2-2.5-29.4-2.5c-23.6,0-47.5,9.4-47.5,41.6
			c0,36.5,39.9,32.8,39.9,48.2c0,10.3-11.1,11.1-19.7,11.1c-14.9,0-28.2-5.1-28.3-4.9l-4.3,27.8c0.8,0.2,9,3.9,35.8,3.9v0
			c7.2,0,48.2,1.8,48.2-40.5c0-39.6-38-31.8-38-47.7C307.1,292.4,313.3,289.9,324.6,289.9z"/>
		<path class="st3" d="M929.2,235L929.2,235l-5.8,42.9c0,0-12-16.6-30.8-16.6c-35.3,0-53.5,35.2-53.5,75.6c0,26.1,13,51.7,39.5,51.7
			c19.1,0,29.7-13.3,29.7-13.3l-1.4,11.4h31l24.3-151.5L929.2,235z M889.9,357.8c-11.5,0-16.8-9.6-16.8-24.7c0-24.7,11.1-41,25.1-41
			c11.5,0,17.4,7.9,17.4,26.4C915.5,335.3,907.2,357.8,889.9,357.8z"/>
		<polygon class="st3" points="123.7,234.8 92.9,327.7 92.1,235.2 44.6,235.2 19.1,386.9 50.8,386.9 50.8,386.9 70.2,272.5 
			73,386.9 95,386.9 135.9,272.5 117.8,386.9 150.4,386.9 175.5,235.2 		"/>
		<path class="st3" d="M589,252.5c-14.3,0-33.3,29-33.3,29l2.8-17.9h-29.7L509,387.1h32.7v0c9.3-52.7,12.6-94.4,39.6-85.8
			c3.9-20.4,13.1-38.2,17.4-46.8C598.7,254.5,597.4,252.5,589,252.5z"/>
		<path class="st3" d="M733.1,260.5L733.1,260.5c-21.9,0-38.6,7-38.6,7l-4.6,27.5c0,0,13.8-5.6,34.7-5.6c11.9,0,20.5,1.3,20.5,11
			c0,5.9-1.1,8-1.1,8s-9.4-0.8-13.7-0.8c-31.1,0-56.5,11.8-56.5,47.2c0,27.9,19,34.4,30.8,34.4c22.5,0,31.4-14.2,31.9-14.2
			l-0.3,11.8h28.1l12.5-87.8C776.8,261.7,744.4,260.5,733.1,260.5z M717.4,362.5c-9.9,0-12.5-7.6-12.5-12c0-8.7,4.7-19.2,28.1-19.2
			c5.4,0,4,0.4,5,0.5C738.5,337.1,736.5,362.5,717.4,362.5z"/>
		<path class="st3" d="M840.5,281c-14.3,0-17.4,0.5-17.4,0.5l2.9-17.9h-29.7l-19.9,123.5h32.7v0h0c5.1-38.8,14.5-93.3,39.6-85.8
			C852.6,280.9,848.9,281,840.5,281z"/>
	</g>
	<g>
		<g>
			<path class="st4" d="M400,283.9h16.9l4.1-30h-15.9l3.2-18.6h-31.9c-0.7,0.7-18.8,104.8-18.8,117.5c0,18.8,10.5,27.1,25.4,27
				c11.6-0.1,20.7-3.3,23.9-4.2l4-27.1c-2.2,0-5.4,0.9-8.2,0.9c-11.1,0-12.3-5.9-11.6-10.3L400,283.9z"/>
			<path class="st4" d="M514,326c0,0,4.2-20.6,4.2-29.1c0-21-10.5-46.6-45.4-46.6c-32,0-55.8,34.5-55.8,73.5h0
				c0,45,29.7,55.7,55,55.7c23.4,0,33.7-5.2,33.7-5.2l5.6-30.7c0,0-17.8,7.8-33.8,7.8c-34.2,0-28.2-25.5-28.2-25.5H514z
				 M472.9,278.9c18,0,14.7,20.2,14.7,21.8h-35.4C452.2,298.7,455.5,278.9,472.9,278.9z"/>
			<path class="st4" d="M663.4,254.5c16.2,0,29.3,9.1,29.3,9.1l5.2-33.8c0,0-19.3-7.8-35.9-7.8c-36.8,0-72.6,31.9-72.6,91.8
				c0,39.7,19.3,66,57.3,66c10.8,0,27.9-4.4,27.9-4.4h0l5.7-34.7c0,0-15.6,7.8-26.4,7.8c-22.6,0-31.7-17.3-31.7-35.8
				C622.3,275.2,641.8,254.5,663.4,254.5z"/>
			<path class="st4" d="M231.6,250.9c-21.9,0-38.6,7-38.6,7l-4.6,27.5c0,0,13.8-5.6,34.7-5.6c11.9,0,20.5,1.3,20.5,11
				c0,5.9-1.1,8-1.1,8s-9.4-0.8-13.7-0.8c-27.6,0-56.5,11.8-56.5,47.2c0,27.9,19,34.4,30.8,34.4c22.5,0,32.2-14.6,32.7-14.6
				l-1.1,12.2h28.1l12.5-87.8C275.4,252.1,242.9,250.9,231.6,250.9z M215.9,352.8c-9.9,0-12.5-7.6-12.5-12c0-8.7,4.7-19.2,28.1-19.2
				c5.4,0,6,0.6,6.9,0.7v0C239.1,327.7,235.1,352.8,215.9,352.8z"/>
			<path class="st4" d="M333,280.3c4.5,0,21.8,1.4,21.8,1.4l4-28.1c0,0-11.2-2.5-29.4-2.5c-23.6,0-47.5,9.4-47.5,41.6
				c0,36.5,39.9,32.8,39.9,48.2c0,10.3-11.1,11.1-19.7,11.1c-14.9,0-28.3-5.1-28.3-4.9l-4.2,27.9c0.8,0.2,9,3.9,35.8,3.9
				c7.2,0,48.2,1.8,48.2-40.5c0-39.6-38-31.8-38-47.7C315.4,282.8,321.6,280.3,333,280.3z"/>
			<path class="st4" d="M938.6,225.6l-6.9,42.6c0,0-12-16.6-30.8-16.6c-29.2,0-53.5,35.2-53.5,75.6c0,26.1,13,51.7,39.5,51.7
				c19.1,0,29.7-13.3,29.7-13.3l-1.4,11.4h31l24.3-151.5L938.6,225.6z M898.2,348.1c-11.5,0-16.8-9.6-16.8-24.7
				c0-24.7,11.1-41,25.1-41c11.5,0,17.4,7.9,17.4,26.4C923.8,325.6,915.5,348.1,898.2,348.1z"/>
			<polygon class="st4" points="133.4,225.5 102,318.6 100.4,225.5 53.9,225.5 28.4,377.2 59.1,377.2 78.5,262.8 81.4,377.2 
				103.3,377.2 144.3,262.8 126.1,377.2 158.7,377.2 183.9,225.5 			"/>
			<path class="st4" d="M588.9,252.3c-14.3,0-24.8,19.5-24.8,19.5l2.8-17.9h-29.7l-19.9,123.5h32.7c9.3-52.7,11-95.6,33.1-87.7
				c3.9-20.4,7.6-28.3,11.8-37C595,252.7,593,252.3,588.9,252.3z"/>
			<path class="st4" d="M748.2,250.9L748.2,250.9c-21.9,0-38.6,7-38.6,7l-4.6,27.5c0,0,13.8-5.6,34.7-5.6c11.9,0,20.5,1.3,20.5,11
				c0,5.9-1.1,8-1.1,8s-9.4-0.8-13.7-0.8c-27.6,0-56.5,11.8-56.5,47.2c0,27.9,19,34.4,30.8,34.4c22.5,0,32.2-14.6,32.7-14.6l-1,12.2
				c0,0,28,0,28.1,0l12.5-87.8C791.9,252.1,759.5,250.9,748.2,250.9z M732.5,352.8c-9.9,0-12.5-7.6-12.5-12
				c0-8.7,4.7-19.2,28.1-19.2c5.4,0,6,0.6,6.9,0.7v0C755.6,327.7,751.6,352.8,732.5,352.8z"/>
			<path class="st4" d="M856.4,252.3c-14.3,0-24.8,19.5-24.8,19.5l2.8-17.9h-29.7l-19.9,123.5h32.7c9.3-52.7,11-95.6,33.1-87.7
				c3.9-20.4,7.6-28.3,11.8-37C862.6,252.7,860.6,252.3,856.4,252.3z"/>
		</g>
		<g>
			<path class="st4" d="M978.2,363.2c-0.9-1.6-2.1-2.8-3.6-3.6c-1.5-0.8-3.1-1.3-4.7-1.3h0c-1.6,0-3.2,0.4-4.8,1.3
				c-1.5,0.8-2.8,2-3.6,3.6c-0.9,1.5-1.3,3.2-1.3,4.8c0,1.7,0.4,3.3,1.3,4.8c0.9,1.5,2,2.7,3.6,3.6c1.5,0.8,3.1,1.3,4.8,1.3
				c1.7,0,3.3-0.4,4.8-1.3c1.5-0.8,2.7-2.1,3.6-3.6c0.9-1.5,1.3-3.1,1.3-4.8C979.5,366.4,979.1,364.8,978.2,363.2z M976.8,372.1
				c-0.7,1.3-1.7,2.3-3,3c-1.3,0.7-2.6,1.1-4,1.1c-1.4,0-2.7-0.4-4-1.1c-1.3-0.7-2.3-1.7-3-3c-0.7-1.3-1.1-2.6-1.1-4
				c0-1.4,0.4-2.7,1.1-4c0.7-1.3,1.7-2.3,3-3c1.3-0.7,2.6-1.1,4-1.1c1.4,0,2.7,0.4,4,1.1c1.3,0.7,2.3,1.7,3,3c0.7,1.3,1.1,2.6,1.1,4
				C977.9,369.5,977.6,370.8,976.8,372.1z"/>
			<path class="st4" d="M971.6,369.3c-0.2-0.2-0.5-0.4-0.9-0.6c0.9-0.1,1.6-0.4,2.2-0.9c0.5-0.6,0.8-1.2,0.8-2c0-0.5-0.2-1-0.5-1.5
				c-0.3-0.5-0.8-0.8-1.3-1c-0.5-0.2-1.4-0.3-2.7-0.3h-3.6v10.4l0,0l1.7,0V369h1c0.6,0,1,0.1,1.3,0.4c0.4,0.3,1,1.1,1.8,2.4l0.9,1.6
				h2.1l-1.3-2C972.5,370.4,972,369.7,971.6,369.3z M969.3,367.5h-2v-3.1h1.9c0.8,0,1.4,0.1,1.7,0.2c0.3,0.1,0.5,0.3,0.7,0.6
				c0.2,0.2,0.3,0.5,0.3,0.8c0,0.5-0.2,0.9-0.5,1.2C971,367.4,970.3,367.5,969.3,367.5z"/>
		</g>
	</g>
</g>
</svg>
